<svg width="16" height="10" viewBox="0 0 16 10" fill="none" xmlns="http://www.w3.org/2000/svg">
<path fill-rule="evenodd" clip-rule="evenodd" d="M13.3332 4C12.2286 4 11.3332 3.10457 11.3332 2C11.3332 0.89543 12.2286 0 13.3332 0C14.4377 0 15.3332 0.89543 15.3332 2C15.3332 3.10457 14.4377 4 13.3332 4ZM13.3332 2.66667C12.965 2.66667 12.6665 2.36819 12.6665 2C12.6665 1.63181 12.965 1.33333 13.3332 1.33333C13.7014 1.33333 13.9998 1.63181 13.9998 2C13.9998 2.36819 13.7014 2.66667 13.3332 2.66667Z" fill="#FCFCFD"/>
<path fill-rule="evenodd" clip-rule="evenodd" d="M7.99984 6.66667C6.89527 6.66667 5.99984 5.77124 5.99984 4.66667C5.99984 3.5621 6.89527 2.66667 7.99984 2.66667C9.10441 2.66667 9.99984 3.5621 9.99984 4.66667C9.99984 5.77124 9.10441 6.66667 7.99984 6.66667ZM7.99984 5.33333C7.63165 5.33333 7.33317 5.03486 7.33317 4.66667C7.33317 4.29848 7.63165 4 7.99984 4C8.36803 4 8.6665 4.29848 8.6665 4.66667C8.6665 5.03486 8.36803 5.33333 7.99984 5.33333Z" fill="#FCFCFD"/>
<path fill-rule="evenodd" clip-rule="evenodd" d="M0.666504 7.33333C0.666504 8.4379 1.56193 9.33333 2.6665 9.33333C3.77107 9.33333 4.6665 8.4379 4.6665 7.33333C4.6665 6.22876 3.77107 5.33333 2.6665 5.33333C1.56193 5.33333 0.666504 6.22876 0.666504 7.33333ZM1.99984 7.33333C1.99984 7.70152 2.29831 8 2.6665 8C3.03469 8 3.33317 7.70152 3.33317 7.33333C3.33317 6.96514 3.03469 6.66667 2.6665 6.66667C2.29831 6.66667 1.99984 6.96514 1.99984 7.33333Z" fill="#FCFCFD"/>
</svg>
